<?xml version="1.0" encoding="utf-8"?>
<!-- Generator: Adobe Illustrator 24.2.0, SVG Export Plug-In . SVG Version: 6.00 Build 0)  -->
<svg version="1.1" id="Layer_1" xmlns="http://www.w3.org/2000/svg" xmlns:xlink="http://www.w3.org/1999/xlink" x="0px" y="0px"
	 viewBox="0 0 199.63 64.05" style="enable-background:new 0 0 199.63 64.05;" xml:space="preserve">
<style type="text/css">
	.st0{fill:#FFD520;}
	.st1{fill:#FFFFFF;}
</style>
<g>
	<path d="M152.03,23.53h-11.76c-4.45-0.43-5.2,3.49-3.65,5.43l4.77,7.57c2.27,5.26-1.27,12.2-8.14,12.18h-10.68v-7.67h7.46
		c0,0,1.95,0.23,2.61-1.27c0.27-0.62,0.38-1.63-0.15-2.56l-3.87-5.78c-4.2-6.22,0.09-16.13,8.24-16.08h15.51
		c6.43,0,11.65,5.22,11.65,11.65v0.33c0,6.43-5.44,11.37-11.65,11.37l-0.05,0l0,10h-8.74l0-18.4c2.81,0,8.46,0,8.45,0v0
		c1.87,0,3.38-1.51,3.38-3.38C155.42,25.06,153.89,23.53,152.03,23.53 M175.99,26.93c0,1.87-1.51,3.38-3.38,3.38v0
		c0.01,0-6.09,0-8.3,0l0,18.39h8.59l0-10.01l-0.03,0c6.43,0,11.42-4.93,11.42-11.36V27c0-6.43-5.22-11.65-11.65-11.65l-15.8-0.01
		c3.74,1.29,6.45,4.33,7.45,8.22l8.27-0.01c1.87,0,3.43,1.55,3.43,3.42"/>
	<g>
		<path d="M18.05,15.35h6.45L31,31.84c0.75,1.97,1.68,4.89,1.68,4.89h0.09c0,0,0.89-2.91,1.64-4.89l6.49-16.49h6.45l2.66,33.36
			h-5.98l-1.4-18.65c-0.14-2.21-0.05-5.17-0.05-5.17h-0.09c0,0-0.98,3.24-1.78,5.17l-5.37,12.92h-5.28l-5.33-12.92
			c-0.79-1.93-1.82-5.22-1.82-5.22h-0.09c0,0,0.09,3.01-0.05,5.22l-1.4,18.65h-6.03L18.05,15.35z"/>
		<path d="M66.37,24.18c7.29,0,13.13,5.21,13.13,12.54c0,7.38-5.84,12.54-13.08,12.54c-7.29,0-13.13-5.17-13.13-12.54
			C53.29,29.39,59.13,24.18,66.37,24.18z M66.42,44.19c3.83,0,7.06-3.01,7.06-7.47c0-4.42-3.22-7.47-7.06-7.47
			c-3.88,0-7.1,3.05-7.1,7.47C59.31,41.19,62.54,44.19,66.42,44.19z"/>
		<path d="M88.8,24.74v24.67c0,8.03-6.68,9.02-9.95,9.02c-1.12,0-1.82-0.14-1.82-0.14v-5.03c0,0,0.42,0.09,1.03,0.09
			c1.68,0,4.81-0.52,4.81-4.42v-24.2H88.8z M82.86,15.35h5.89v5.31h-5.89V15.35z"/>
		<path d="M104.36,24.18c6.87,0,10.56,5.03,10.56,11.37c0,0.71-0.14,2.3-0.14,2.3H98.33c0.37,4.18,3.6,6.34,7.15,6.34
			c3.83,0,6.87-2.63,6.87-2.63l2.29,4.28c0,0-3.64,3.43-9.58,3.43c-7.9,0-12.8-5.73-12.8-12.54
			C92.26,29.35,97.26,24.18,104.36,24.18z M108.94,33.76c-0.09-3.24-2.1-4.98-4.72-4.98c-3.04,0-5.14,1.88-5.7,4.98H108.94z"/>
	</g>
</g>
</svg>
